<?xml version="1.0" encoding="iso-8859-1"?>
<!DOCTYPE svg PUBLIC "-//W3C//DTD SVG 1.1//EN" "http://www.w3.org/Graphics/SVG/1.1/DTD/svg11.dtd">
<svg xmlns="http://www.w3.org/2000/svg" xmlns:xlink="http://www.w3.org/1999/xlink" version="1.1" viewBox="0 0 512 512" enable-background="new 0 0 512 512" width="512px" height="512px">
  <g>
    <circle cx="144" cy="400" r="48" fill="#f5cc27"/>
    <circle cx="384" cy="400" r="48" fill="#f5cc27"/>
    <path d="M507.438,223.539l-48-80C453.656,133.898,443.242,128,432,128H320V96c0-17.672-14.328-32-32-32H32C14.328,64,0,78.328,0,96   v288c0,17.672,14.328,32,32,32h33.612C64.563,410.828,64,405.48,64,400c0-44.184,35.817-80,80-80s80,35.816,80,80   c0,5.48-0.563,10.828-1.612,16H288h16v-16c0-44.184,35.817-80,80-80s80,35.816,80,80v16h16c17.672,0,32-14.328,32-32V240   C512,234.203,510.422,228.508,507.438,223.539z M448,256h-96v-16v-64h64l32,64V256z" fill="#f5cc27"/>
  </g>
</svg>
